HIERARCHY
ROOT hip
{
  OFFSET 0 0 0
  CHANNELS 6 Xposition Yposition Zposition Zrotation Yrotation Xrotation
  JOINT abdomen
  {
    OFFSET 0 20.6881 -0.73152
    CHANNELS 3 Zrotation Xrotation Yrotation
    JOINT chest
    {
      OFFSET 0 11.7043 -0.48768
      CHANNELS 3 Zrotation Xrotation Yrotation
      JOINT neck
      {
        OFFSET 0 22.1894 -2.19456
        CHANNELS 3 Zrotation Xrotation Yrotation
        JOINT head
        {
          OFFSET -0.24384 7.07133 1.2192
          CHANNELS 3 Zrotation Xrotation Yrotation
          JOINT leftEye
          {
            OFFSET 4.14528 8.04674 8.04672
            CHANNELS 3 Zrotation Xrotation Yrotation
            End Site
            {
              OFFSET 1 0 0
            }
          }
          JOINT rightEye
          {
            OFFSET -3.6576 8.04674 8.04672
            CHANNELS 3 Zrotation Xrotation Yrotation
            End Site
            {
              OFFSET 1 0 0
            }
          }
        }
      }
      JOINT rCollar
      {
        OFFSET -2.68224 19.2634 -4.8768
        CHANNELS 3 Zrotation Xrotation Yrotation
        JOINT rShldr
        {
          OFFSET -8.77824 -1.95073 1.46304
          CHANNELS 3 Zrotation Xrotation Yrotation
          JOINT rForeArm
          {
            OFFSET -28.1742 -1.7115 0.48768
            CHANNELS 3 Zrotation Xrotation Yrotation
            JOINT rHand
            {
              OFFSET -22.5879 0.773209 7.07136
              CHANNELS 3 Zrotation Xrotation Yrotation
              JOINT rThumb1
              {
                OFFSET -1.2192 -0.487915 3.41376
                CHANNELS 3 Zrotation Xrotation Yrotation
                JOINT rThumb2
                {
                  OFFSET -3.37035 -0.52449 3.41376
                  CHANNELS 3 Zrotation Xrotation Yrotation
                  End Site
                  {
                    OFFSET -1.78271 -1.18214 1.43049
                  }
                }
              }
              JOINT rIndex1
              {
                OFFSET -7.75947 0.938293 5.60832
                CHANNELS 3 Zrotation Xrotation Yrotation
                JOINT rIndex2
                {
                  OFFSET -2.54057 -0.884171 1.56538
                  CHANNELS 3 Zrotation Xrotation Yrotation
                  End Site
                  {
                    OFFSET -1.62519 -0.234802 1.16502
                  }
                }
              }
              JOINT rMid1
              {
                OFFSET -8.24714 1.18213 3.41376
                CHANNELS 3 Zrotation Xrotation Yrotation
                JOINT rMid2
                {
                  OFFSET -3.10165 -0.590103 1.0647
                  CHANNELS 3 Zrotation Xrotation Yrotation
                  End Site
                  {
                    OFFSET -2.48547 -0.328903 0.83742
                  }
                }
              }
              JOINT rRing1
              {
                OFFSET -8.82822 0.546677 1.51678
                CHANNELS 3 Zrotation Xrotation Yrotation
                JOINT rRing2
                {
                  OFFSET -2.60934 -0.819778 -0.0198488
                  CHANNELS 3 Zrotation Xrotation Yrotation
                  End Site
                  {
                    OFFSET -2.33842 -0.294052 0.168128
                  }
                }
              }
              JOINT rPinky1
              {
                OFFSET -8.27202 -0.0477905 -0.4584
                CHANNELS 3 Zrotation Xrotation Yrotation
                JOINT rPinky2
                {
                  OFFSET -1.82734 -0.647385 -0.700984
                  CHANNELS 3 Zrotation Xrotation Yrotation
                  End Site
                  {
                    OFFSET -1.69225 -0.51767 -0.607171
                  }
                }
              }
            }
          }
        }
      }
      JOINT lCollar
      {
        OFFSET 2.68224 19.2634 -4.8768
        CHANNELS 3 Zrotation Xrotation Yrotation
        JOINT lShldr
        {
          OFFSET 8.77824 -1.95073 1.46304
          CHANNELS 3 Zrotation Xrotation Yrotation
          JOINT lForeArm
          {
            OFFSET 28.1742 -1.7115 0.48768
            CHANNELS 3 Zrotation Xrotation Yrotation
            JOINT lHand
            {
              OFFSET 22.5879 0.773209 7.07136
              CHANNELS 3 Zrotation Xrotation Yrotation
              JOINT lThumb1
              {
                OFFSET 1.2192 -0.487915 3.41376
                CHANNELS 3 Zrotation Xrotation Yrotation
                JOINT lThumb2
                {
                  OFFSET 3.37035 -0.52449 3.41376
                  CHANNELS 3 Zrotation Xrotation Yrotation
                  End Site
                  {
                    OFFSET 1.78271 -1.18214 1.43049
                  }
                }
              }
              JOINT lIndex1
              {
                OFFSET 7.75947 0.938293 5.60832
                CHANNELS 3 Zrotation Xrotation Yrotation
                JOINT lIndex2
                {
                  OFFSET 2.54057 -0.884171 1.56538
                  CHANNELS 3 Zrotation Xrotation Yrotation
                  End Site
                  {
                    OFFSET 1.62519 -0.234802 1.16502
                  }
                }
              }
              JOINT lMid1
              {
                OFFSET 8.24714 1.18213 3.41376
                CHANNELS 3 Zrotation Xrotation Yrotation
                JOINT lMid2
                {
                  OFFSET 3.10165 -0.590103 1.0647
                  CHANNELS 3 Zrotation Xrotation Yrotation
                  End Site
                  {
                    OFFSET 2.48547 -0.328903 0.83742
                  }
                }
              }
              JOINT lRing1
              {
                OFFSET 8.82822 0.546677 1.51678
                CHANNELS 3 Zrotation Xrotation Yrotation
                JOINT lRing2
                {
                  OFFSET 2.60934 -0.819778 -0.0198488
                  CHANNELS 3 Zrotation Xrotation Yrotation
                  End Site
                  {
                    OFFSET 2.33842 -0.294052 0.168128
                  }
                }
              }
              JOINT lPinky1
              {
                OFFSET 8.27202 -0.0477905 -0.4584
                CHANNELS 3 Zrotation Xrotation Yrotation
                JOINT lPinky2
                {
                  OFFSET 1.82734 -0.647385 -0.700984
                  CHANNELS 3 Zrotation Xrotation Yrotation
                  End Site
                  {
                    OFFSET 1.69225 -0.51767 -0.607171
                  }
                }
              }
            }
          }
        }
      }
    }
  }
  JOINT rButtock
  {
    OFFSET -8.77824 4.35084 1.2192
    CHANNELS 3 Zrotation Xrotation Yrotation
    JOINT rThigh
    {
      OFFSET 0 -1.70687 -2.19456
      CHANNELS 3 Zrotation Xrotation Yrotation
      JOINT rShin
      {
        OFFSET 0 -36.8199 0.73152
        CHANNELS 3 Zrotation Xrotation Yrotation
        JOINT rFoot
        {
          OFFSET 0.73152 -45.1104 -5.12064
          CHANNELS 3 Zrotation Xrotation Yrotation
          End Site
          {
            OFFSET -1.1221 -3.69964 12.103
          }
        }
      }
    }
  }
  JOINT lButtock
  {
    OFFSET 8.77824 4.35084 1.2192
    CHANNELS 3 Zrotation Xrotation Yrotation
    JOINT lThigh
    {
      OFFSET 0 -1.70687 -2.19456
      CHANNELS 3 Zrotation Xrotation Yrotation
      JOINT lShin
      {
        OFFSET 0 -36.8199 0.73152
        CHANNELS 3 Zrotation Xrotation Yrotation
        JOINT lFoot
        {
          OFFSET -0.73152 -45.1104 -5.12064
          CHANNELS 3 Zrotation Xrotation Yrotation
          End Site
          {
            OFFSET 1.1221 -3.69964 12.103
          }
        }
      }
    }
  }
}
MOTION
Frames:	8
Frame Time:	0.00833333
53.2081 85.5235 -206.156 -2.8838 -0.3807 -356.319 5.5354 2.19958 3.10517 -0.538906 -10.3849 0.943935 -6.34976 10.3761 -4.4549 12.7064 -11.3368 -6.85216 -0.0 0.0 0.0 -0.0 0.0 0.0 1.89092e-13 -1.22451e-13 7.35503e-15 84.2269 32.6518 -6.53791 -14.4229 -7.30074 26.4088 -0.464457 19.004 2.77437 -2.07682e-09 2.85176e-09 -1.08591e-09 -3.60469e-09 4.9018e-09 -1.84035e-09 -2.07681e-09 2.85176e-09 -1.08591e-09 7.73091 5.47488 0.417314 -2.07681e-09 2.85175e-09 -1.08591e-09 2.90554 0.965183 0.102902 -2.0768e-09 2.85176e-09 -1.08591e-09 10.2786 0.731801 0.0259123 -2.07682e-09 2.85176e-09 -1.08591e-09 2.22167 -0.733487 -0.20892 1.89009e-13 -1.22451e-13 6.95746e-15 -85.6841 33.4843 10.3499 15.8066 -8.50878 -29.2654 0.347702 16.5393 -2.39193 -3.16627e-10 -1.7658e-09 -1.71931e-09 -5.68066e-10 -3.06829e-09 -2.96831e-09 -3.16626e-10 -1.7658e-09 -1.7193e-09 -7.73091 5.47488 -0.417314 -3.16624e-10 -1.7658e-09 -1.71931e-09 -2.90554 0.965183 -0.102902 -3.16631e-10 -1.7658e-09 -1.71931e-09 -10.2786 0.731801 -0.0259123 -3.16621e-10 -1.7658e-09 -1.71933e-09 -2.22167 -0.733487 0.20892 -2.03217e-16 0.0 -3.88251e-19 18.3231 1.59986 10.8896 0.081547 12.9335 0.884127 -10.7619 -15.3815 -37.972 2.03217e-16 0.0 3.88251e-19 -0.0077964 -31.9263 -22.3085 0.0883289 26.1174 -1.24784 9.53474 -16.2635 23.2356
53.2706 85.5038 -205.746 -2.9222 -0.4644 -356.299 5.61274 2.09116 3.08995 -0.530349 -10.334 0.942915 -6.41403 10.2823 -4.44733 12.9166 -10.9773 -6.83978 -0.0 0.0 0.0 -0.0 0.0 0.0 1.60008e-13 -1.08828e-13 2.92509e-15 83.8817 32.7612 -6.42334 -14.3497 -7.24026 26.2601 -0.478652 19.2752 2.81719 -1.52599e-09 2.12325e-09 -8.25256e-10 -2.6481e-09 3.64932e-09 -1.39949e-09 -1.52598e-09 2.12325e-09 -8.25261e-10 7.73091 5.47488 0.417314 -1.52598e-09 2.12325e-09 -8.25258e-10 2.90554 0.965183 0.102902 -1.52598e-09 2.12325e-09 -8.25256e-10 10.2786 0.731801 0.0259123 -1.52599e-09 2.12325e-09 -8.25257e-10 2.22167 -0.733487 -0.20892 1.59933e-13 -1.08828e-13 2.52286e-15 -85.7837 33.3159 10.5214 15.8119 -8.51367 -29.2766 0.329253 16.1196 -2.32771 -3.19408e-10 -1.50359e-09 -1.41569e-09 -5.69777e-10 -2.61193e-09 -2.44317e-09 -3.19408e-10 -1.50359e-09 -1.41569e-09 -7.73091 5.47488 -0.417314 -3.19404e-10 -1.50359e-09 -1.4157e-09 -2.90554 0.965183 -0.102902 -3.19412e-10 -1.50359e-09 -1.4157e-09 -10.2786 0.731801 -0.0259123 -3.19401e-10 -1.50359e-09 -1.41572e-09 -2.22167 -0.733487 0.20892 -2.03217e-16 0.0 -3.88251e-19 18.2938 1.76959 10.7412 0.0815523 12.947 0.884756 -10.7126 -15.3608 -37.8847 2.03217e-16 0.0 3.88251e-19 -0.0394632 -31.7358 -22.3575 0.0872972 26.0653 -1.24849 9.52924 -16.1477 23.3259
53.3257 85.4429 -205.391 -3.0165 -0.3474 -356.165 5.72729 1.96894 3.05263 -0.491316 -10.2373 0.939185 -6.51096 10.1993 -4.42928 13.1273 -10.6402 -6.80354 -0.0 0.0 0.0 -0.0 0.0 0.0 9.9756e-14 -8.42347e-14 -4.16205e-16 83.4693 32.886 -6.26967 -14.2661 -7.17133 26.0907 -0.490446 19.4994 2.85265 -5.74819e-10 8.51834e-10 -3.47001e-10 -9.96135e-10 1.46369e-09 -5.89812e-10 -5.74812e-10 8.51831e-10 -3.47005e-10 7.73091 5.47488 0.417314 -5.74816e-10 8.51828e-10 -3.47003e-10 2.90554 0.965183 0.102902 -5.74808e-10 8.5183e-10 -3.47001e-10 10.2786 0.731801 0.0259123 -5.74823e-10 8.51832e-10 -3.47e-10 2.22167 -0.733487 -0.20892 9.96875e-14 -8.42346e-14 -8.26198e-16 -85.8871 33.1299 10.6407 15.8218 -8.52273 -29.2974 0.308383 15.6231 -2.25217 -2.97238e-10 -9.8871e-10 -8.38926e-10 -5.25347e-10 -1.7161e-09 -1.44594e-09 -2.97242e-10 -9.88711e-10 -8.38917e-10 -7.73091 5.47488 -0.417314 -2.97235e-10 -9.8871e-10 -8.38927e-10 -2.90554 0.965183 -0.102902 -2.97244e-10 -9.8871e-10 -8.3893e-10 -10.2786 0.731801 -0.0259123 -2.97232e-10 -9.88707e-10 -8.38947e-10 -2.22167 -0.733487 0.20892 -2.03217e-16 0.0 -3.88251e-19 18.2967 1.96086 10.5762 0.0815901 12.9736 0.886046 -10.6648 -15.344 -37.807 2.03217e-16 0.0 3.88251e-19 -0.0251587 -31.5426 -22.2626 0.0866069 26.0857 -1.24935 9.47134 -15.9525 23.3723
53.4276 85.4258 -204.946 -3.0408 -0.2985 -356.208 5.84713 1.83815 3.01366 -0.448994 -10.1367 0.935503 -6.60992 10.1226 -4.40523 13.3189 -10.3097 -6.75792 -0.0 0.0 0.0 -0.0 0.0 0.0 3.72303e-14 -5.96661e-14 -2.65486e-15 83.0343 33.0084 -6.1048 -14.1779 -7.09896 25.9126 -0.50162 19.7111 2.8862 3.93237e-10 -4.30606e-10 1.2959e-10 6.84918e-10 -7.40499e-10 2.16625e-10 3.93241e-10 -4.30609e-10 1.29586e-10 7.73091 5.47488 0.417314 3.93238e-10 -4.30609e-10 1.29589e-10 2.90554 0.965183 0.102902 3.93246e-10 -4.30608e-10 1.2959e-10 10.2786 0.731801 0.0259123 3.9323e-10 -4.30606e-10 1.29594e-10 2.22167 -0.733487 -0.20892 3.71649e-14 -5.96662e-14 -3.06641e-15 -85.9857 32.9199 10.7504 15.8309 -8.53106 -29.3165 0.289039 15.136 -2.17853 -2.89497e-10 -4.70544e-10 -2.43304e-10 -5.05572e-10 -8.14226e-10 -4.15913e-10 -2.89505e-10 -4.70547e-10 -2.43295e-10 -7.73091 5.47488 -0.417314 -2.89495e-10 -4.70547e-10 -2.43304e-10 -2.90554 0.965183 -0.102902 -2.89504e-10 -4.70546e-10 -2.43309e-10 -10.2786 0.731801 -0.0259123 -2.89491e-10 -4.70541e-10 -2.43324e-10 -2.22167 -0.733487 0.20892 -2.03217e-16 0.0 -3.88251e-19 18.29 2.15661 10.4217 0.081625 13.0038 0.887441 -10.5995 -15.3067 -37.7259 2.03217e-16 0.0 3.88251e-19 -0.0229346 -31.3388 -22.1537 0.0862402 26.13 -1.25024 9.40848 -15.732 23.4301
53.5241 85.3997 -204.562 -3.0825 -0.2152 -356.155 5.94054 1.70406 2.99347 -0.430598 -10.0742 0.934619 -6.68026 10.0474 -4.3797 13.4722 -9.96993 -6.7174 -0.0 0.0 0.0 -0.0 0.0 0.0 1.32451e-15 -4.61177e-14 -3.77691e-15 82.6219 33.1108 -5.9569 -14.0911 -7.0282 25.7376 -0.514139 19.9452 2.92339 9.94725e-10 -1.19218e-09 3.85248e-10 1.72876e-09 -2.04866e-09 6.47773e-10 9.94727e-10 -1.19218e-09 3.85245e-10 7.73091 5.47488 0.417314 9.94724e-10 -1.19218e-09 3.85248e-10 2.90554 0.965183 0.102902 9.94732e-10 -1.19218e-09 3.85249e-10 10.2786 0.731801 0.0259123 9.94717e-10 -1.19217e-09 3.85254e-10 2.22167 -0.733487 -0.20892 1.25978e-15 -4.61178e-14 -4.17448e-15 -86.0698 32.6795 10.8924 15.8338 -8.53377 -29.3227 0.27428 14.7444 -2.11966 -3.35564e-10 -1.98492e-10 1.16866e-10 -5.8125e-10 -3.39734e-10 2.07609e-10 -3.35576e-10 -1.98497e-10 1.16876e-10 -7.73091 5.47488 -0.417314 -3.35564e-10 -1.98498e-10 1.16866e-10 -2.90554 0.965183 -0.102902 -3.35573e-10 -1.98496e-10 1.16861e-10 -10.2786 0.731801 -0.0259123 -3.35559e-10 -1.9849e-10 1.16847e-10 -2.22167 -0.733487 0.20892 -2.03217e-16 0.0 -3.88251e-19 18.2315 2.33971 10.3048 0.0816235 13.0282 0.888384 -10.498 -15.2249 -37.6283 2.03217e-16 0.0 3.88251e-19 -0.0887612 -31.1172 -22.1597 0.0861756 26.1496 -1.25102 9.3876 -15.54 23.5538
53.6184 85.3751 -204.231 -3.1143 -0.1149 -355.986 6.00458 1.57587 2.99643 -0.447886 -10.0765 0.936633 -6.71739 9.97511 -4.35238 13.5874 -9.61776 -6.68277 -0.0 0.0 0.0 -0.0 0.0 0.0 3.88727e-15 -5.12925e-14 -4.04791e-15 82.245 33.213 -5.84039 -14.0041 -6.95782 25.5622 -0.528236 20.2025 2.96443 1.0951e-09 -1.23263e-09 3.26914e-10 1.90142e-09 -2.11608e-09 5.45117e-10 1.0951e-09 -1.23263e-09 3.2691e-10 7.73091 5.47488 0.417314 1.0951e-09 -1.23263e-09 3.26914e-10 2.90554 0.965183 0.102902 1.09511e-09 -1.23263e-09 3.26915e-10 10.2786 0.731801 0.0259123 1.09509e-09 -1.23263e-09 3.2692e-10 2.22167 -0.733487 -0.20892 3.81822e-15 -5.12925e-14 -4.40044e-15 -86.14 32.3983 11.0947 15.8304 -8.53062 -29.3155 0.263624 14.4565 -2.07649 -4.75557e-10 -2.91589e-10 1.4187e-10 -8.22791e-10 -4.99079e-10 2.52712e-10 -4.75569e-10 -2.91595e-10 1.41881e-10 -7.73091 5.47488 -0.417314 -4.75559e-10 -2.91598e-10 1.41868e-10 -2.90554 0.965183 -0.102902 -4.75566e-10 -2.91593e-10 1.41866e-10 -10.2786 0.731801 -0.0259123 -4.75552e-10 -2.91589e-10 1.41855e-10 -2.22167 -0.733487 0.20892 -2.03217e-16 0.0 -3.88251e-19 18.1102 2.50654 10.2333 0.081544 13.0441 0.888451 -10.3665 -15.1086 -37.5091 2.03217e-16 0.0 3.88251e-19 -0.242209 -30.8685 -22.3269 0.0867205 26.138 -1.25139 9.42144 -15.3724 23.7759
53.7559 85.3763 -203.77 -3.068 -0.2685 -355.904 6.05447 1.4482 3.01199 -0.484843 -10.1161 0.94029 -6.73643 9.90743 -4.32137 13.6731 -9.26124 -6.64735 -0.0 0.0 0.0 -0.0 0.0 0.0 2.81274e-14 -6.77361e-14 -3.38555e-15 81.8794 33.3164 -5.73805 -13.9147 -6.88597 25.3823 -0.543026 20.4673 3.00683 9.09638e-10 -8.55117e-10 8.30604e-11 1.57702e-09 -1.46415e-09 1.2685e-10 9.09638e-10 -8.55115e-10 8.30542e-11 7.73091 5.47488 0.417314 9.09635e-10 -8.55112e-10 8.30592e-11 2.90554 0.965183 0.102902 9.09642e-10 -8.55112e-10 8.30612e-11 10.2786 0.731801 0.0259123 9.09633e-10 -8.55108e-10 8.30661e-11 2.22167 -0.733487 -0.20892 2.80497e-14 -6.77357e-14 -3.6713e-15 -86.199 32.0826 11.3288 15.8231 -8.52387 -29.3002 0.255239 14.2313 -2.04275 -6.786e-10 -5.99315e-10 -2.20295e-11 -1.17526e-09 -1.03081e-09 -2.80572e-11 -6.78612e-10 -5.9932e-10 -2.2017e-11 -7.73091 5.47488 -0.417314 -6.78606e-10 -5.99326e-10 -2.20347e-11 -2.90554 0.965183 -0.102902 -6.78608e-10 -5.99318e-10 -2.20318e-11 -10.2786 0.731801 -0.0259123 -6.78596e-10 -5.99315e-10 -2.20397e-11 -2.22167 -0.733487 0.20892 -2.03217e-16 0.0 -3.88251e-19 17.9479 2.66582 10.1927 0.0814161 13.0568 0.888032 -10.2118 -14.9649 -37.3761 2.03217e-16 0.0 3.88251e-19 -0.449707 -30.5992 -22.5813 0.0877819 26.119 -1.25153 9.48407 -15.2065 24.061
53.9125 85.4111 -203.296 -2.9924 -0.4401 -355.852 6.08587 1.30437 3.03824 -0.527045 -10.1533 0.946296 -6.7364 9.8397 -4.28876 13.7224 -8.90161 -6.61438 -0.0 0.0 0.0 -0.0 0.0 0.0 5.99787e-14 -8.37076e-14 -1.25405e-15 81.5152 33.3755 -5.63083 -13.8283 -6.81687 25.209 -0.558996 20.7493 3.05215 5.79605e-10 -2.82823e-10 -2.33283e-10 1.0014e-09 -4.77421e-10 -4.14013e-10 5.79604e-10 -2.8282e-10 -2.33291e-10 7.73091 5.47488 0.417314 5.79601e-10 -2.82817e-10 -2.33285e-10 2.90554 0.965183 0.102902 5.79607e-10 -2.82815e-10 -2.33282e-10 10.2786 0.731801 0.0259123 5.79601e-10 -2.82811e-10 -2.33278e-10 2.22167 -0.733487 -0.20892 5.98932e-14 -8.37069e-14 -1.47924e-15 -86.2407 31.7509 11.5517 15.8106 -8.51235 -29.2738 0.249614 14.0814 -2.02028 -8.77588e-10 -9.6673e-10 -2.60172e-10 -1.52144e-09 -1.66648e-09 -4.37292e-10 -8.77599e-10 -9.66735e-10 -2.60158e-10 -7.73091 5.47488 -0.417314 -8.77596e-10 -9.66744e-10 -2.60181e-10 -2.90554 0.965183 -0.102902 -8.77596e-10 -9.66733e-10 -2.60173e-10 -10.2786 0.731801 -0.0259123 -8.77584e-10 -9.66732e-10 -2.60178e-10 -2.22167 -0.733487 0.20892 -2.03217e-16 0.0 -3.88251e-19 17.7517 2.81889 10.1762 0.0813136 13.068 0.887784 -10.016 -14.7648 -37.2361 2.03217e-16 0.0 3.88251e-19 -0.686623 -30.3259 -22.8718 0.0887343 26.0895 -1.25195 9.56496 -15.0687 24.3619
